<svg xmlns="http://www.w3.org/2000/svg" xmlns:xlink="http://www.w3.org/1999/xlink" width="500" zoomAndPan="magnify" viewBox="0 0 375 374.999991" height="500" preserveAspectRatio="xMidYMid meet" version="1.0"><defs><clipPath id="4f13b97a85"><path d="M 29.183594 33.480469 L 345.683594 33.480469 L 345.683594 349.980469 L 29.183594 349.980469 Z M 29.183594 33.480469 " clip-rule="nonzero"/></clipPath></defs><g clip-path="url(#4f13b97a85)"><path fill="#63883b" d="M 187.5 33.480469 C 274.929688 33.480469 345.8125 104.363281 345.8125 191.792969 C 345.8125 279.226562 274.929688 350.109375 187.5 350.109375 C 100.066406 350.109375 29.183594 279.238281 29.183594 191.792969 C 29.183594 104.363281 100.066406 33.480469 187.5 33.480469 Z M 187.5 33.480469 " fill-opacity="1" fill-rule="nonzero"/></g><path fill="#ffffff" d="M 268.898438 115.9375 C 272.136719 118.75 272.484375 123.644531 269.671875 126.882812 L 248.898438 150.804688 C 247.351562 152.582031 247.546875 155.261719 249.324219 156.804688 C 251.101562 158.347656 253.789062 158.15625 255.324219 156.378906 L 274.746094 134.011719 C 277.558594 130.769531 282.453125 130.425781 285.691406 133.238281 C 288.933594 136.050781 289.277344 140.945312 286.464844 144.183594 L 265.203125 168.664062 C 251.140625 187.925781 242.183594 188.667969 234.285156 187.8125 C 226.742188 187 218.058594 187.367188 213.085938 193.09375 L 129.683594 283.675781 C 126.515625 287.117188 121.195312 287.410156 117.660156 284.34375 C 113.988281 281.15625 113.671875 275.550781 116.972656 271.976562 L 200.167969 181.609375 C 205.09375 175.945312 204.300781 167.394531 202.515625 160.105469 C 200.636719 152.449219 200.777344 143.605469 217.1875 126.972656 L 238.449219 102.492188 C 241.261719 99.253906 246.164062 98.910156 249.394531 101.722656 C 252.632812 104.535156 252.980469 109.429688 250.167969 112.667969 L 230.742188 135.035156 C 229.199219 136.8125 229.390625 139.503906 231.167969 141.035156 C 232.945312 142.570312 235.625 142.386719 237.167969 140.609375 L 257.945312 116.6875 C 260.765625 113.46875 265.671875 113.125 268.898438 115.9375 Z M 268.898438 115.9375 " fill-opacity="1" fill-rule="evenodd"/><path fill="#ffffff" d="M 161.71875 138.449219 C 159.738281 134.953125 157.261719 131.5625 154.328125 128.40625 C 138.800781 111.683594 115.996094 107.601562 103.417969 119.296875 C 90.824219 130.996094 93.210938 154.023438 108.746094 170.746094 C 113.234375 175.578125 118.332031 179.355469 123.621094 182.007812 C 129.96875 186.921875 138.234375 188.953125 146.488281 187.46875 C 150.933594 186.625 155.421875 187.925781 158.621094 190.929688 L 249.292969 286.609375 C 250.695312 288.109375 252.664062 288.972656 254.777344 289.003906 C 256.886719 289.035156 258.957031 288.222656 260.53125 286.75 C 262.117188 285.277344 263.070312 283.277344 263.203125 281.167969 C 263.335938 279.0625 262.613281 277.035156 261.214844 275.519531 L 171.882812 178.605469 C 170.511719 176.929688 169.566406 174.941406 169.128906 172.796875 C 168.683594 170.65625 168.753906 168.410156 169.332031 166.246094 C 170.53125 161.558594 170.582031 156.695312 169.484375 152.082031 C 168.390625 147.472656 166.164062 143.25 163.019531 139.777344 C 162.589844 139.332031 162.164062 138.894531 161.71875 138.449219 Z M 161.71875 138.449219 " fill-opacity="1" fill-rule="evenodd"/></svg>