<svg xmlns="http://www.w3.org/2000/svg" xmlns:xlink="http://www.w3.org/1999/xlink" width="500" zoomAndPan="magnify" viewBox="0 0 375 187.499995" height="250" preserveAspectRatio="xMidYMid meet" version="1.0"><defs><g/><clipPath id="3b591c12a6"><path d="M 61.730469 82 L 317.75 82 L 317.75 179.898438 L 61.730469 179.898438 Z M 61.730469 82 " clip-rule="nonzero"/></clipPath><clipPath id="ebdc000be0"><path d="M 175 7.363281 L 204 7.363281 L 204 74 L 175 74 Z M 175 7.363281 " clip-rule="nonzero"/></clipPath></defs><path fill="#63883b" d="M 224.125 39.34375 C 222.980469 37.78125 220.570312 40.777344 207.4375 50.0625 C 199.699219 55.527344 206.421875 55.847656 196.984375 64.785156 C 190.53125 70.890625 181.796875 76.320312 175.320312 80.765625 C 171.578125 83.332031 158.113281 93.429688 161.109375 96.789062 C 164.109375 100.144531 176.175781 88.8125 179.351562 85.570312 C 184.859375 79.96875 191.71875 72.308594 198.851562 67.015625 C 209.285156 59.265625 208.441406 65.941406 215.171875 59.269531 C 226.589844 47.949219 229.910156 46.039062 228.578125 44.644531 L 215.648438 55.855469 C 215.382812 56.085938 214.960938 56.019531 214.707031 55.722656 C 214.300781 55.238281 214.441406 55.039062 214.742188 54.777344 C 218.953125 51.109375 223.167969 47.441406 227.386719 43.773438 C 228.339844 42.941406 227.472656 41.925781 226.484375 42.765625 L 213.71875 53.558594 C 213.449219 53.785156 213.003906 53.695312 212.78125 53.425781 C 212.554688 53.15625 212.542969 52.703125 212.8125 52.480469 C 217.105469 48.90625 221.398438 45.328125 225.691406 41.757812 C 226.65625 40.953125 225.863281 40.058594 224.886719 40.835938 L 211.789062 51.257812 C 211.472656 51.507812 211.261719 51.609375 210.851562 51.125 C 210.601562 50.832031 210.613281 50.402344 210.882812 50.179688 " fill-opacity="1" fill-rule="evenodd"/><path fill="#63883b" d="M 180.589844 64.964844 C 187.019531 71.089844 195.777344 76.5 202.195312 81.011719 C 205.902344 83.617188 219.398438 93.671875 216.402344 97.027344 C 213.40625 100.390625 201.375 89.015625 198.167969 85.8125 C 192.605469 80.285156 185.765625 72.582031 178.613281 67.320312 C 173.296875 63.398438 171.882812 64.007812 166.382812 63.519531 C 163.46875 63.265625 161.617188 63.066406 158.480469 60.4375 C 150.648438 53.863281 148.90625 45.199219 151.277344 42.371094 C 153.644531 39.542969 162.480469 39.761719 170.3125 46.332031 C 173.636719 49.125 174.1875 51.078125 174.855469 54.011719 C 176.027344 59.15625 176.085938 60.675781 180.589844 64.964844 " fill-opacity="1" fill-rule="evenodd"/><g clip-path="url(#3b591c12a6)"><path fill="#63883b" d="M 209.390625 82.679688 L 317.402344 82.679688 L 317.402344 85.992188 L 214.316406 85.992188 M 61.742188 82.679688 L 168.238281 82.679688 L 163.3125 85.992188 L 61.742188 85.992188 Z M 274.335938 163.441406 C 268.882812 163.441406 258.953125 175.894531 258.898438 179.617188 L 120.25 179.617188 C 120.195312 175.894531 110.257812 163.441406 104.804688 163.441406 L 61.742188 163.441406 L 61.742188 160.125 L 317.402344 160.125 L 317.402344 163.441406 Z M 274.335938 163.441406 " fill-opacity="1" fill-rule="evenodd"/></g><g clip-path="url(#ebdc000be0)"><path fill="#63883b" d="M 188.472656 13.164062 C 182.730469 22.515625 175.230469 35.648438 178.945312 45.824219 C 181.097656 51.722656 185.089844 54.179688 188.472656 55.175781 L 188.472656 51.433594 L 181.65625 44.863281 L 183.121094 43.339844 L 188.472656 48.503906 L 188.472656 40.382812 L 181.71875 33.503906 L 183.222656 32.027344 L 188.472656 37.375 L 188.472656 29.089844 L 184.757812 25.304688 L 186.261719 23.832031 L 188.472656 26.082031 M 190.582031 51.433594 L 190.582031 55.203125 C 193.988281 54.226562 198.035156 51.777344 200.203125 45.824219 C 203.933594 35.597656 196.335938 22.378906 190.582031 13.019531 L 190.582031 26.082031 L 192.792969 23.832031 L 194.296875 25.308594 L 190.582031 29.09375 L 190.582031 37.375 L 195.832031 32.027344 L 197.339844 33.503906 L 190.582031 40.382812 L 190.582031 48.503906 L 195.933594 43.339844 L 197.398438 44.863281 Z M 190.582031 73.863281 L 188.472656 73.863281 L 188.472656 57.359375 C 183.082031 55.980469 179.015625 52.171875 176.964844 46.550781 C 172.652344 34.734375 181.765625 19.996094 187.796875 10.242188 L 189.574219 7.363281 L 191.355469 10.25 C 197.382812 20.003906 206.496094 34.738281 202.1875 46.550781 C 200.125 52.199219 196.019531 56.019531 190.582031 57.386719 Z M 190.582031 73.863281 " fill-opacity="1" fill-rule="evenodd"/></g><g fill="#63883b" fill-opacity="1"><g transform="translate(20.325226, 139.921782)"><g><path d="M 31.875 -10.453125 C 32.332031 -10.066406 32.640625 -9.300781 32.796875 -8.15625 C 32.960938 -7.007812 32.90625 -5.820312 32.625 -4.59375 C 32.40625 -3.570312 32.015625 -2.59375 31.453125 -1.65625 C 30.890625 -0.726562 30.148438 -0.175781 29.234375 0 C 28.890625 0.0703125 28.082031 0.113281 26.8125 0.125 C 25.539062 0.144531 24.050781 0.144531 22.34375 0.125 C 20.644531 0.113281 18.921875 0.0976562 17.171875 0.078125 C 15.429688 0.0546875 13.882812 0.0546875 12.53125 0.078125 C 11.175781 0.0976562 10.21875 0.144531 9.65625 0.21875 C 8.21875 0.457031 6.75 0.539062 5.25 0.46875 C 3.757812 0.40625 2.710938 0.195312 2.109375 -0.15625 C 2.359375 -0.644531 2.570312 -1.390625 2.75 -2.390625 C 2.925781 -3.398438 3.066406 -4.503906 3.171875 -5.703125 C 3.273438 -6.898438 3.304688 -8.039062 3.265625 -9.125 L 3.0625 -41.640625 C 3.445312 -41.710938 4.125 -41.726562 5.09375 -41.6875 C 6.0625 -41.65625 7.09375 -41.5 8.1875 -41.21875 C 9.375 -40.9375 10.441406 -40.410156 11.390625 -39.640625 C 12.347656 -38.867188 12.929688 -37.882812 13.140625 -36.6875 C 13.210938 -36.300781 13.265625 -35.535156 13.296875 -34.390625 C 13.335938 -33.242188 13.363281 -31.894531 13.375 -30.34375 C 13.394531 -28.800781 13.394531 -27.21875 13.375 -25.59375 C 13.363281 -23.976562 13.359375 -22.46875 13.359375 -21.0625 C 13.359375 -19.65625 13.347656 -18.507812 13.328125 -17.625 C 13.304688 -16.75 13.296875 -16.3125 13.296875 -16.3125 C 13.265625 -14.96875 13.40625 -13.757812 13.71875 -12.6875 C 14.039062 -11.613281 14.5 -10.78125 15.09375 -10.1875 C 15.550781 -9.726562 16.113281 -9.410156 16.78125 -9.234375 C 17.445312 -9.054688 18.273438 -8.9375 19.265625 -8.875 C 19.691406 -8.832031 20.351562 -8.828125 21.25 -8.859375 C 22.144531 -8.898438 23.132812 -8.960938 24.21875 -9.046875 C 25.3125 -9.140625 26.394531 -9.253906 27.46875 -9.390625 C 28.539062 -9.535156 29.484375 -9.695312 30.296875 -9.875 C 31.109375 -10.050781 31.632812 -10.242188 31.875 -10.453125 Z M 31.875 -10.453125 "/></g></g></g><g fill="#63883b" fill-opacity="1"><g transform="translate(55.316009, 139.921782)"><g><path d="M 29.234375 -6.703125 C 29.234375 -6.390625 29.285156 -5.914062 29.390625 -5.28125 C 29.503906 -4.644531 29.65625 -3.992188 29.84375 -3.328125 C 30.039062 -2.660156 30.242188 -2.070312 30.453125 -1.5625 C 30.660156 -1.050781 30.875 -0.742188 31.09375 -0.640625 C 30.59375 -0.0351562 29.796875 0.445312 28.703125 0.8125 C 27.617188 1.1875 26.53125 1.25 25.4375 1 C 24.59375 0.757812 23.835938 0.53125 23.171875 0.3125 C 22.503906 0.101562 21.585938 0.015625 20.421875 0.046875 C 19.578125 0.0859375 18.738281 0.175781 17.90625 0.3125 C 17.082031 0.457031 16.25 0.617188 15.40625 0.796875 C 14.988281 0.859375 14.257812 0.878906 13.21875 0.859375 C 12.1875 0.847656 11.0625 0.71875 9.84375 0.46875 C 8.625 0.226562 7.503906 -0.191406 6.484375 -0.796875 C 5.148438 -1.597656 4.148438 -2.773438 3.484375 -4.328125 C 2.816406 -5.878906 2.429688 -7.460938 2.328125 -9.078125 C 2.328125 -9.460938 2.316406 -10.21875 2.296875 -11.34375 C 2.273438 -12.46875 2.253906 -13.804688 2.234375 -15.359375 C 2.222656 -16.910156 2.207031 -18.507812 2.1875 -20.15625 C 2.164062 -21.8125 2.144531 -23.351562 2.125 -24.78125 C 2.113281 -26.207031 2.109375 -27.367188 2.109375 -28.265625 C 2.109375 -29.160156 2.109375 -29.609375 2.109375 -29.609375 C 2.429688 -29.640625 2.96875 -29.679688 3.71875 -29.734375 C 4.476562 -29.796875 5.3125 -29.789062 6.21875 -29.71875 C 7.132812 -29.644531 8.023438 -29.472656 8.890625 -29.203125 C 9.753906 -28.941406 10.492188 -28.53125 11.109375 -27.96875 C 11.722656 -27.40625 12.082031 -26.648438 12.1875 -25.703125 C 12.257812 -24.929688 12.3125 -24.226562 12.34375 -23.59375 C 12.382812 -22.957031 12.40625 -22.257812 12.40625 -21.5 C 12.40625 -20.75 12.378906 -19.816406 12.328125 -18.703125 C 12.273438 -17.597656 12.210938 -16.203125 12.140625 -14.515625 C 12.066406 -13.140625 12.039062 -11.957031 12.0625 -10.96875 C 12.082031 -9.988281 12.316406 -9.25 12.765625 -8.75 C 13.222656 -8.257812 14.035156 -8.050781 15.203125 -8.125 C 15.972656 -8.164062 16.613281 -8.472656 17.125 -9.046875 C 17.632812 -9.628906 18.046875 -10.34375 18.359375 -11.1875 C 18.679688 -12.03125 18.90625 -12.890625 19.03125 -13.765625 C 19.15625 -14.648438 19.21875 -15.425781 19.21875 -16.09375 C 19.21875 -16.238281 19.207031 -16.785156 19.1875 -17.734375 C 19.164062 -18.679688 19.144531 -19.816406 19.125 -21.140625 C 19.113281 -22.460938 19.097656 -23.773438 19.078125 -25.078125 C 19.054688 -26.378906 19.046875 -27.457031 19.046875 -28.3125 C 19.046875 -29.175781 19.046875 -29.609375 19.046875 -29.609375 C 19.367188 -29.640625 19.898438 -29.644531 20.640625 -29.625 C 21.378906 -29.613281 22.203125 -29.535156 23.109375 -29.390625 C 24.023438 -29.253906 24.921875 -29.007812 25.796875 -28.65625 C 26.679688 -28.300781 27.429688 -27.816406 28.046875 -27.203125 C 28.671875 -26.585938 29.035156 -25.804688 29.140625 -24.859375 C 29.347656 -22.816406 29.390625 -20.328125 29.265625 -17.390625 C 29.140625 -14.453125 29.128906 -10.890625 29.234375 -6.703125 Z M 29.234375 -6.703125 "/></g></g></g><g fill="#63883b" fill-opacity="1"><g transform="translate(88.512397, 139.921782)"><g><path d="M 30.875 -6.703125 C 30.914062 -5.148438 31.15625 -4.066406 31.59375 -3.453125 C 32.03125 -2.835938 32.25 -2.53125 32.25 -2.53125 C 32.25 -2.53125 31.941406 -2.3125 31.328125 -1.875 C 30.710938 -1.4375 29.894531 -0.988281 28.875 -0.53125 C 27.851562 -0.0703125 26.707031 0.15625 25.4375 0.15625 C 23.570312 0.15625 22.359375 -0.351562 21.796875 -1.375 C 21.234375 -2.394531 20.9375 -3.710938 20.90625 -5.328125 C 20.90625 -5.609375 20.921875 -6.222656 20.953125 -7.171875 C 20.984375 -8.128906 21.007812 -9.210938 21.03125 -10.421875 C 21.050781 -11.640625 21.039062 -12.765625 21 -13.796875 C 20.96875 -14.835938 20.898438 -15.570312 20.796875 -16 C 20.410156 -17.40625 19.65625 -18.019531 18.53125 -17.84375 C 17.644531 -17.738281 16.816406 -17.234375 16.046875 -16.328125 C 15.273438 -15.429688 14.640625 -14.367188 14.140625 -13.140625 C 13.648438 -11.910156 13.40625 -10.75 13.40625 -9.65625 C 13.40625 -9.09375 13.378906 -8.535156 13.328125 -7.984375 C 13.273438 -7.441406 13.234375 -6.941406 13.203125 -6.484375 C 13.160156 -6.171875 13.203125 -5.785156 13.328125 -5.328125 C 13.453125 -4.867188 13.691406 -4.5 14.046875 -4.21875 C 13.796875 -3.800781 13.304688 -3.253906 12.578125 -2.578125 C 11.859375 -1.910156 11.085938 -1.304688 10.265625 -0.765625 C 9.441406 -0.222656 8.726562 0.0820312 8.125 0.15625 C 7.5625 0.195312 6.898438 0.0234375 6.140625 -0.359375 C 5.390625 -0.753906 4.738281 -1.335938 4.1875 -2.109375 C 3.644531 -2.878906 3.359375 -3.8125 3.328125 -4.90625 C 3.328125 -5.1875 3.332031 -5.835938 3.34375 -6.859375 C 3.363281 -7.878906 3.382812 -9.109375 3.40625 -10.546875 C 3.425781 -11.992188 3.441406 -13.523438 3.453125 -15.140625 C 3.472656 -16.765625 3.484375 -18.332031 3.484375 -19.84375 C 3.484375 -21.351562 3.484375 -22.65625 3.484375 -23.75 C 3.484375 -24.695312 3.367188 -25.617188 3.140625 -26.515625 C 2.910156 -27.421875 2.679688 -28.160156 2.453125 -28.734375 C 2.222656 -29.316406 2.109375 -29.609375 2.109375 -29.609375 C 2.429688 -29.679688 2.988281 -29.734375 3.78125 -29.765625 C 4.570312 -29.804688 5.457031 -29.789062 6.4375 -29.71875 C 7.425781 -29.644531 8.398438 -29.484375 9.359375 -29.234375 C 10.328125 -28.992188 11.148438 -28.609375 11.828125 -28.078125 C 12.523438 -27.546875 13.234375 -27.21875 13.953125 -27.09375 C 14.679688 -26.976562 15.253906 -27.039062 15.671875 -27.28125 C 16.898438 -28.09375 18.148438 -28.796875 19.421875 -29.390625 C 20.691406 -29.992188 21.925781 -30.363281 23.125 -30.5 C 23.71875 -30.570312 24.414062 -30.546875 25.21875 -30.421875 C 26.03125 -30.304688 26.832031 -30.035156 27.625 -29.609375 C 28.414062 -29.191406 29.101562 -28.59375 29.6875 -27.8125 C 30.269531 -27.039062 30.628906 -26.054688 30.765625 -24.859375 C 31.015625 -22.816406 31.085938 -20.328125 30.984375 -17.390625 C 30.878906 -14.453125 30.84375 -10.890625 30.875 -6.703125 Z M 30.875 -6.703125 "/></g></g></g><g fill="#63883b" fill-opacity="1"><g transform="translate(122.869866, 139.921782)"><g><path d="M 15.890625 -30.671875 C 18.492188 -30.671875 20.71875 -30.300781 22.5625 -29.5625 C 24.40625 -28.820312 25.820312 -27.90625 26.8125 -26.8125 C 27.800781 -25.71875 28.273438 -24.644531 28.234375 -23.59375 C 28.234375 -23.03125 27.988281 -22.394531 27.5 -21.6875 C 27.007812 -20.988281 26.367188 -20.398438 25.578125 -19.921875 C 24.785156 -19.453125 23.910156 -19.269531 22.953125 -19.375 C 23.203125 -20.007812 23.046875 -20.609375 22.484375 -21.171875 C 21.921875 -21.734375 21.109375 -22.195312 20.046875 -22.5625 C 18.992188 -22.9375 17.851562 -23.140625 16.625 -23.171875 C 15.21875 -23.242188 14.265625 -23.09375 13.765625 -22.71875 C 13.273438 -22.351562 13 -21.957031 12.9375 -21.53125 C 12.820312 -21.070312 13.03125 -20.675781 13.5625 -20.34375 C 14.09375 -20.007812 14.785156 -19.707031 15.640625 -19.4375 C 16.503906 -19.175781 17.421875 -18.945312 18.390625 -18.75 C 19.359375 -18.5625 20.253906 -18.394531 21.078125 -18.25 C 21.910156 -18.113281 22.554688 -17.976562 23.015625 -17.84375 C 25.117188 -17.207031 26.664062 -16.382812 27.65625 -15.375 C 28.644531 -14.375 29.285156 -13.3125 29.578125 -12.1875 C 29.878906 -11.0625 29.992188 -9.957031 29.921875 -8.875 C 29.859375 -7.113281 29.410156 -5.640625 28.578125 -4.453125 C 27.753906 -3.273438 26.734375 -2.332031 25.515625 -1.625 C 24.304688 -0.925781 23.039062 -0.410156 21.71875 -0.078125 C 20.394531 0.253906 19.160156 0.472656 18.015625 0.578125 C 16.878906 0.679688 16.007812 0.734375 15.40625 0.734375 C 13.582031 0.703125 11.867188 0.519531 10.265625 0.1875 C 8.660156 -0.144531 7.285156 -0.578125 6.140625 -1.109375 C 5.003906 -1.640625 4.1875 -2.203125 3.6875 -2.796875 C 3.34375 -3.222656 3.007812 -3.820312 2.6875 -4.59375 C 2.375 -5.363281 2.191406 -6.195312 2.140625 -7.09375 C 2.085938 -7.988281 2.269531 -8.847656 2.6875 -9.671875 C 3.113281 -10.503906 3.890625 -11.1875 5.015625 -11.71875 C 5.222656 -11.007812 5.789062 -10.375 6.71875 -9.8125 C 7.65625 -9.25 8.785156 -8.789062 10.109375 -8.4375 C 11.429688 -8.09375 12.742188 -7.847656 14.046875 -7.703125 C 15.304688 -7.597656 16.5 -7.613281 17.625 -7.75 C 18.75 -7.894531 19.363281 -8.300781 19.46875 -8.96875 C 19.539062 -9.320312 19.363281 -9.675781 18.9375 -10.03125 C 18.519531 -10.382812 17.75 -10.679688 16.625 -10.921875 C 15.425781 -11.203125 14.378906 -11.421875 13.484375 -11.578125 C 12.585938 -11.742188 11.695312 -11.929688 10.8125 -12.140625 C 9.164062 -12.554688 7.722656 -13.222656 6.484375 -14.140625 C 5.253906 -15.054688 4.332031 -16.15625 3.71875 -17.4375 C 3.101562 -18.726562 2.882812 -20.09375 3.0625 -21.53125 C 3.34375 -23.613281 4.109375 -25.320312 5.359375 -26.65625 C 6.609375 -27.988281 8.164062 -28.988281 10.03125 -29.65625 C 11.894531 -30.332031 13.847656 -30.671875 15.890625 -30.671875 Z M 15.890625 -30.671875 "/></g></g></g><g fill="#63883b" fill-opacity="1"><g transform="translate(154.905174, 139.921782)"><g><path d="M 11.609375 -31.40625 C 10.453125 -31.375 9.414062 -31.707031 8.5 -32.40625 C 7.582031 -33.113281 6.882812 -33.984375 6.40625 -35.015625 C 5.9375 -36.054688 5.753906 -37.050781 5.859375 -38 C 6.035156 -39.445312 6.675781 -40.476562 7.78125 -41.09375 C 8.894531 -41.707031 10.050781 -42.03125 11.25 -42.0625 C 12.96875 -42.101562 14.300781 -41.628906 15.25 -40.640625 C 16.195312 -39.648438 16.671875 -38.523438 16.671875 -37.265625 C 16.671875 -36.421875 16.492188 -35.554688 16.140625 -34.671875 C 15.796875 -33.796875 15.242188 -33.050781 14.484375 -32.4375 C 13.734375 -31.820312 12.773438 -31.476562 11.609375 -31.40625 Z M 17.09375 -25.703125 C 17.207031 -24.890625 17.289062 -23.78125 17.34375 -22.375 C 17.394531 -20.96875 17.425781 -19.410156 17.4375 -17.703125 C 17.457031 -15.992188 17.457031 -14.269531 17.4375 -12.53125 C 17.425781 -10.789062 17.398438 -9.171875 17.359375 -7.671875 C 17.328125 -6.179688 17.273438 -4.941406 17.203125 -3.953125 C 17.097656 -2.367188 16.71875 -0.796875 16.0625 0.765625 C 15.414062 2.328125 14.59375 3.632812 13.59375 4.6875 C 12.59375 5.75 11.492188 6.332031 10.296875 6.4375 C 9.128906 6.539062 7.972656 6.398438 6.828125 6.015625 C 5.691406 5.628906 4.703125 5.144531 3.859375 4.5625 C 3.015625 3.976562 2.429688 3.460938 2.109375 3.015625 C 3.765625 2.796875 5.019531 2.359375 5.875 1.703125 C 6.738281 1.054688 7.191406 -0.0703125 7.234375 -1.6875 C 7.234375 -2 7.234375 -2.734375 7.234375 -3.890625 C 7.234375 -5.054688 7.234375 -6.484375 7.234375 -8.171875 C 7.234375 -9.867188 7.222656 -11.679688 7.203125 -13.609375 C 7.179688 -15.546875 7.160156 -17.457031 7.140625 -19.34375 C 7.128906 -21.226562 7.113281 -22.941406 7.09375 -24.484375 C 7.082031 -26.035156 7.066406 -27.273438 7.046875 -28.203125 C 7.023438 -29.140625 7.015625 -29.609375 7.015625 -29.609375 C 7.335938 -29.640625 7.875 -29.679688 8.625 -29.734375 C 9.382812 -29.796875 10.222656 -29.789062 11.140625 -29.71875 C 12.054688 -29.644531 12.941406 -29.472656 13.796875 -29.203125 C 14.660156 -28.941406 15.398438 -28.53125 16.015625 -27.96875 C 16.628906 -27.40625 16.988281 -26.648438 17.09375 -25.703125 Z M 17.09375 -25.703125 "/></g></g></g><g fill="#63883b" fill-opacity="1"><g transform="translate(174.485242, 139.921782)"><g><path d="M 31.25 -9.546875 C 31.28125 -8.773438 31.335938 -7.828125 31.421875 -6.703125 C 31.515625 -5.578125 31.738281 -4.484375 32.09375 -3.421875 C 32.445312 -2.367188 33.007812 -1.523438 33.78125 -0.890625 C 32.894531 -0.296875 31.992188 0.128906 31.078125 0.390625 C 30.171875 0.660156 29.273438 0.722656 28.390625 0.578125 C 28.148438 0.503906 27.890625 0.425781 27.609375 0.34375 C 27.328125 0.257812 26.9375 0.144531 26.4375 0 C 25.632812 -0.25 24.6875 -0.300781 23.59375 -0.15625 C 22.5 -0.0195312 21.363281 0.160156 20.1875 0.390625 C 19.007812 0.617188 17.859375 0.734375 16.734375 0.734375 C 14.898438 0.734375 13.066406 0.410156 11.234375 -0.234375 C 9.410156 -0.890625 7.757812 -1.898438 6.28125 -3.265625 C 4.800781 -4.640625 3.671875 -6.382812 2.890625 -8.5 C 2.117188 -10.613281 1.894531 -13.144531 2.21875 -16.09375 C 2.425781 -18.132812 3.003906 -20.007812 3.953125 -21.71875 C 4.910156 -23.425781 6.082031 -24.90625 7.46875 -26.15625 C 8.851562 -27.40625 10.328125 -28.367188 11.890625 -29.046875 C 13.460938 -29.734375 14.988281 -30.0625 16.46875 -30.03125 C 17.59375 -30 18.460938 -29.960938 19.078125 -29.921875 C 19.691406 -29.890625 20.492188 -29.800781 21.484375 -29.65625 C 22.078125 -29.59375 22.832031 -29.679688 23.75 -29.921875 C 24.664062 -30.171875 25.585938 -30.441406 26.515625 -30.734375 C 27.453125 -31.035156 28.253906 -31.1875 28.921875 -31.1875 C 29.941406 -31.226562 30.660156 -31.203125 31.078125 -31.109375 C 31.503906 -31.023438 31.859375 -30.945312 32.140625 -30.875 C 31.929688 -30.238281 31.753906 -29.285156 31.609375 -28.015625 C 31.472656 -26.753906 31.378906 -25.320312 31.328125 -23.71875 C 31.273438 -22.125 31.226562 -20.460938 31.1875 -18.734375 C 31.15625 -17.015625 31.144531 -15.363281 31.15625 -13.78125 C 31.175781 -12.195312 31.207031 -10.785156 31.25 -9.546875 Z M 11.40625 -14.40625 C 11.46875 -12.644531 11.789062 -11.28125 12.375 -10.3125 C 12.957031 -9.351562 13.660156 -8.675781 14.484375 -8.28125 C 15.316406 -7.894531 16.117188 -7.703125 16.890625 -7.703125 C 18.441406 -7.671875 19.582031 -8.269531 20.3125 -9.5 C 21.050781 -10.726562 21.40625 -12.4375 21.375 -14.625 C 21.375 -15.21875 21.3125 -15.921875 21.1875 -16.734375 C 21.0625 -17.546875 20.847656 -18.335938 20.546875 -19.109375 C 20.253906 -19.878906 19.851562 -20.523438 19.34375 -21.046875 C 18.832031 -21.578125 18.171875 -21.84375 17.359375 -21.84375 C 15.742188 -21.84375 14.328125 -21.242188 13.109375 -20.046875 C 11.898438 -18.859375 11.332031 -16.976562 11.40625 -14.40625 Z M 11.40625 -14.40625 "/></g></g></g><g fill="#63883b" fill-opacity="1"><g transform="translate(210.373235, 139.921782)"><g><path d="M 21.265625 -30.34375 C 23.347656 -30.03125 24.90625 -29.539062 25.9375 -28.875 C 26.976562 -28.207031 27.664062 -27.421875 28 -26.515625 C 28.332031 -25.617188 28.421875 -24.625 28.265625 -23.53125 C 28.109375 -22.445312 27.835938 -21.320312 27.453125 -20.15625 C 27.171875 -19.28125 26.753906 -18.171875 26.203125 -16.828125 C 25.660156 -15.492188 25.097656 -14.125 24.515625 -12.71875 C 23.929688 -11.3125 23.394531 -10.046875 22.90625 -8.921875 C 22.414062 -7.796875 22.082031 -7.003906 21.90625 -6.546875 C 21.238281 -4.992188 20.648438 -3.769531 20.140625 -2.875 C 19.628906 -1.976562 19.109375 -1.316406 18.578125 -0.890625 C 18.046875 -0.472656 17.394531 -0.210938 16.625 -0.109375 C 15.632812 0.0351562 14.753906 -0.0703125 13.984375 -0.4375 C 13.210938 -0.8125 12.613281 -1.382812 12.1875 -2.15625 C 12.15625 -2.226562 12.085938 -2.582031 11.984375 -3.21875 C 11.878906 -3.851562 11.769531 -4.515625 11.65625 -5.203125 C 11.550781 -5.890625 11.445312 -6.335938 11.34375 -6.546875 C 10.957031 -7.640625 10.457031 -8.945312 9.84375 -10.46875 C 9.226562 -12 8.578125 -13.644531 7.890625 -15.40625 C 7.203125 -17.164062 6.515625 -18.890625 5.828125 -20.578125 C 5.140625 -22.273438 4.515625 -23.816406 3.953125 -25.203125 C 3.390625 -26.585938 2.941406 -27.691406 2.609375 -28.515625 C 2.273438 -29.347656 2.109375 -29.765625 2.109375 -29.765625 C 2.640625 -29.835938 3.378906 -29.925781 4.328125 -30.03125 C 5.273438 -30.132812 6.285156 -30.148438 7.359375 -30.078125 C 8.429688 -30.015625 9.441406 -29.753906 10.390625 -29.296875 C 11.347656 -28.835938 12.109375 -28.097656 12.671875 -27.078125 C 12.847656 -26.722656 13.082031 -26.164062 13.375 -25.40625 C 13.675781 -24.65625 13.96875 -23.960938 14.25 -23.328125 C 14.457031 -22.910156 14.675781 -22.414062 14.90625 -21.84375 C 15.132812 -21.28125 15.40625 -20.785156 15.71875 -20.359375 C 16.039062 -19.941406 16.414062 -19.71875 16.84375 -19.6875 C 17.40625 -19.65625 17.867188 -19.882812 18.234375 -20.375 C 18.609375 -20.863281 18.898438 -21.414062 19.109375 -22.03125 C 19.316406 -22.644531 19.472656 -23.09375 19.578125 -23.375 C 19.898438 -24.1875 20.207031 -25.039062 20.5 -25.9375 C 20.800781 -26.832031 21.03125 -27.675781 21.1875 -28.46875 C 21.34375 -29.257812 21.367188 -29.882812 21.265625 -30.34375 Z M 21.265625 -30.34375 "/></g></g></g><g fill="#63883b" fill-opacity="1"><g transform="translate(240.825244, 139.921782)"><g><path d="M 24.546875 -29.296875 C 24.898438 -28.941406 25.171875 -28.296875 25.359375 -27.359375 C 25.554688 -26.429688 25.609375 -25.410156 25.515625 -24.296875 C 25.429688 -23.191406 25.164062 -22.191406 24.71875 -21.296875 C 24.28125 -20.398438 23.625 -19.789062 22.75 -19.46875 C 21.375 -18.976562 20.367188 -18.097656 19.734375 -16.828125 C 19.109375 -15.566406 18.738281 -13.96875 18.625 -12.03125 L 18.625 -7.546875 C 18.695312 -6.984375 18.9375 -6.523438 19.34375 -6.171875 C 19.75 -5.816406 20.15625 -5.566406 20.5625 -5.421875 C 20.96875 -5.285156 21.171875 -5.21875 21.171875 -5.21875 C 21.171875 -5.21875 21.109375 -4.972656 20.984375 -4.484375 C 20.859375 -3.992188 20.632812 -3.410156 20.3125 -2.734375 C 20 -2.066406 19.539062 -1.425781 18.9375 -0.8125 C 18.34375 -0.195312 17.570312 0.226562 16.625 0.46875 C 16.132812 0.582031 15.472656 0.609375 14.640625 0.546875 C 13.816406 0.492188 12.984375 0.328125 12.140625 0.046875 C 11.296875 -0.234375 10.59375 -0.617188 10.03125 -1.109375 C 9.707031 -1.390625 9.441406 -1.6875 9.234375 -2 C 9.023438 -2.320312 8.875 -2.796875 8.78125 -3.421875 C 8.695312 -4.054688 8.65625 -4.957031 8.65625 -6.125 L 8.65625 -11.765625 C 8.625 -13.804688 8.179688 -15.503906 7.328125 -16.859375 C 6.484375 -18.210938 5.378906 -19.382812 4.015625 -20.375 C 3.378906 -20.832031 2.925781 -21.578125 2.65625 -22.609375 C 2.394531 -23.648438 2.226562 -24.75 2.15625 -25.90625 C 2.09375 -27.070312 2.078125 -28.0625 2.109375 -28.875 C 2.285156 -28.832031 2.757812 -28.757812 3.53125 -28.65625 C 4.3125 -28.550781 4.984375 -28.5 5.546875 -28.5 C 6.671875 -28.539062 7.441406 -28.984375 7.859375 -29.828125 C 8.285156 -30.671875 8.5 -31.722656 8.5 -32.984375 L 8.4375 -37.6875 C 8.757812 -37.71875 9.296875 -37.757812 10.046875 -37.8125 C 10.804688 -37.863281 11.644531 -37.851562 12.5625 -37.78125 C 13.476562 -37.71875 14.363281 -37.550781 15.21875 -37.28125 C 16.082031 -37.019531 16.820312 -36.609375 17.4375 -36.046875 C 18.0625 -35.484375 18.425781 -34.726562 18.53125 -33.78125 C 18.53125 -33.675781 18.535156 -33.539062 18.546875 -33.375 C 18.566406 -33.21875 18.578125 -33.035156 18.578125 -32.828125 L 18.625 -32.828125 C 18.625 -32.367188 18.6875 -31.820312 18.8125 -31.1875 C 18.9375 -30.5625 19.125 -30.035156 19.375 -29.609375 C 19.613281 -29.253906 20 -29 20.53125 -28.84375 C 21.0625 -28.6875 21.582031 -28.597656 22.09375 -28.578125 C 22.601562 -28.566406 22.976562 -28.59375 23.21875 -28.65625 C 23.601562 -28.757812 23.882812 -28.851562 24.0625 -28.9375 C 24.238281 -29.03125 24.398438 -29.148438 24.546875 -29.296875 Z M 24.546875 -29.296875 "/></g></g></g><g fill="#63883b" fill-opacity="1"><g transform="translate(268.480101, 139.921782)"><g><path d="M 31.25 -9.546875 C 31.28125 -8.773438 31.335938 -7.828125 31.421875 -6.703125 C 31.515625 -5.578125 31.738281 -4.484375 32.09375 -3.421875 C 32.445312 -2.367188 33.007812 -1.523438 33.78125 -0.890625 C 32.894531 -0.296875 31.992188 0.128906 31.078125 0.390625 C 30.171875 0.660156 29.273438 0.722656 28.390625 0.578125 C 28.148438 0.503906 27.890625 0.425781 27.609375 0.34375 C 27.328125 0.257812 26.9375 0.144531 26.4375 0 C 25.632812 -0.25 24.6875 -0.300781 23.59375 -0.15625 C 22.5 -0.0195312 21.363281 0.160156 20.1875 0.390625 C 19.007812 0.617188 17.859375 0.734375 16.734375 0.734375 C 14.898438 0.734375 13.066406 0.410156 11.234375 -0.234375 C 9.410156 -0.890625 7.757812 -1.898438 6.28125 -3.265625 C 4.800781 -4.640625 3.671875 -6.382812 2.890625 -8.5 C 2.117188 -10.613281 1.894531 -13.144531 2.21875 -16.09375 C 2.425781 -18.132812 3.003906 -20.007812 3.953125 -21.71875 C 4.910156 -23.425781 6.082031 -24.90625 7.46875 -26.15625 C 8.851562 -27.40625 10.328125 -28.367188 11.890625 -29.046875 C 13.460938 -29.734375 14.988281 -30.0625 16.46875 -30.03125 C 17.59375 -30 18.460938 -29.960938 19.078125 -29.921875 C 19.691406 -29.890625 20.492188 -29.800781 21.484375 -29.65625 C 22.078125 -29.59375 22.832031 -29.679688 23.75 -29.921875 C 24.664062 -30.171875 25.585938 -30.441406 26.515625 -30.734375 C 27.453125 -31.035156 28.253906 -31.1875 28.921875 -31.1875 C 29.941406 -31.226562 30.660156 -31.203125 31.078125 -31.109375 C 31.503906 -31.023438 31.859375 -30.945312 32.140625 -30.875 C 31.929688 -30.238281 31.753906 -29.285156 31.609375 -28.015625 C 31.472656 -26.753906 31.378906 -25.320312 31.328125 -23.71875 C 31.273438 -22.125 31.226562 -20.460938 31.1875 -18.734375 C 31.15625 -17.015625 31.144531 -15.363281 31.15625 -13.78125 C 31.175781 -12.195312 31.207031 -10.785156 31.25 -9.546875 Z M 11.40625 -14.40625 C 11.46875 -12.644531 11.789062 -11.28125 12.375 -10.3125 C 12.957031 -9.351562 13.660156 -8.675781 14.484375 -8.28125 C 15.316406 -7.894531 16.117188 -7.703125 16.890625 -7.703125 C 18.441406 -7.671875 19.582031 -8.269531 20.3125 -9.5 C 21.050781 -10.726562 21.40625 -12.4375 21.375 -14.625 C 21.375 -15.21875 21.3125 -15.921875 21.1875 -16.734375 C 21.0625 -17.546875 20.847656 -18.335938 20.546875 -19.109375 C 20.253906 -19.878906 19.851562 -20.523438 19.34375 -21.046875 C 18.832031 -21.578125 18.171875 -21.84375 17.359375 -21.84375 C 15.742188 -21.84375 14.328125 -21.242188 13.109375 -20.046875 C 11.898438 -18.859375 11.332031 -16.976562 11.40625 -14.40625 Z M 11.40625 -14.40625 "/></g></g></g><g fill="#63883b" fill-opacity="1"><g transform="translate(304.368094, 139.921782)"><g><path d="M 3.015625 -4.328125 C 3.015625 -4.609375 3.015625 -5.375 3.015625 -6.625 C 3.015625 -7.875 3.015625 -9.429688 3.015625 -11.296875 C 3.015625 -13.160156 3.003906 -15.207031 2.984375 -17.4375 C 2.960938 -19.675781 2.953125 -21.9375 2.953125 -24.21875 C 2.953125 -26.507812 2.941406 -28.679688 2.921875 -30.734375 C 2.910156 -32.796875 2.882812 -34.585938 2.84375 -36.109375 C 2.8125 -37.546875 2.6875 -38.75 2.46875 -39.71875 C 2.257812 -40.6875 2.140625 -41.273438 2.109375 -41.484375 C 2.535156 -41.554688 3.171875 -41.582031 4.015625 -41.5625 C 4.859375 -41.539062 5.796875 -41.429688 6.828125 -41.234375 C 7.867188 -41.046875 8.863281 -40.75 9.8125 -40.34375 C 10.769531 -39.945312 11.5625 -39.382812 12.1875 -38.65625 C 12.820312 -37.9375 13.160156 -37.03125 13.203125 -35.9375 C 13.234375 -35.269531 13.253906 -34.097656 13.265625 -32.421875 C 13.285156 -30.753906 13.304688 -28.800781 13.328125 -26.5625 C 13.347656 -24.332031 13.375 -22.046875 13.40625 -19.703125 C 13.4375 -17.367188 13.460938 -15.160156 13.484375 -13.078125 C 13.503906 -11.003906 13.519531 -9.273438 13.53125 -7.890625 C 13.550781 -6.503906 13.5625 -5.6875 13.5625 -5.4375 C 13.5625 -4.695312 13.765625 -3.984375 14.171875 -3.296875 C 14.578125 -2.609375 15.007812 -2.175781 15.46875 -2 C 15.25 -1.71875 14.769531 -1.347656 14.03125 -0.890625 C 13.300781 -0.441406 12.453125 -0.0234375 11.484375 0.359375 C 10.515625 0.753906 9.535156 1.003906 8.546875 1.109375 C 7.742188 1.179688 6.910156 0.992188 6.046875 0.546875 C 5.179688 0.109375 4.457031 -0.53125 3.875 -1.375 C 3.300781 -2.21875 3.015625 -3.203125 3.015625 -4.328125 Z M 3.015625 -4.328125 "/></g></g></g><g fill="#63883b" fill-opacity="1"><g transform="translate(321.942647, 139.921782)"><g><path d="M 28.71875 -13.25 C 29.59375 -12.644531 30.160156 -11.789062 30.421875 -10.6875 C 30.691406 -9.582031 30.660156 -8.378906 30.328125 -7.078125 C 29.992188 -5.773438 29.332031 -4.53125 28.34375 -3.34375 C 27.351562 -2.164062 26.019531 -1.191406 24.34375 -0.421875 C 22.675781 0.347656 20.664062 0.753906 18.3125 0.796875 C 16.34375 0.828125 14.414062 0.578125 12.53125 0.046875 C 10.65625 -0.472656 8.953125 -1.28125 7.421875 -2.375 C 5.890625 -3.46875 4.644531 -4.875 3.6875 -6.59375 C 2.738281 -8.320312 2.210938 -10.378906 2.109375 -12.765625 C 2.078125 -13.265625 2.078125 -13.773438 2.109375 -14.296875 C 2.140625 -14.828125 2.175781 -15.375 2.21875 -15.9375 C 2.21875 -16.082031 2.222656 -16.222656 2.234375 -16.359375 C 2.253906 -16.503906 2.285156 -16.644531 2.328125 -16.78125 C 2.671875 -18.894531 3.394531 -20.832031 4.5 -22.59375 C 5.613281 -24.351562 6.976562 -25.847656 8.59375 -27.078125 C 10.21875 -28.304688 11.953125 -29.210938 13.796875 -29.796875 C 15.648438 -30.378906 17.472656 -30.582031 19.265625 -30.40625 C 22.046875 -30.125 24.203125 -29.382812 25.734375 -28.1875 C 27.265625 -26.988281 28.265625 -25.519531 28.734375 -23.78125 C 29.210938 -22.039062 29.222656 -20.164062 28.765625 -18.15625 C 28.515625 -17.164062 27.957031 -16.1875 27.09375 -15.21875 C 26.238281 -14.257812 25.175781 -13.398438 23.90625 -12.640625 C 22.644531 -11.878906 21.300781 -11.296875 19.875 -10.890625 C 18.445312 -10.492188 17.066406 -10.328125 15.734375 -10.390625 C 15.054688 -10.429688 14.703125 -10.226562 14.671875 -9.78125 C 14.640625 -9.34375 14.832031 -8.867188 15.25 -8.359375 C 15.675781 -7.847656 16.238281 -7.507812 16.9375 -7.34375 C 18.59375 -6.988281 20.148438 -6.976562 21.609375 -7.3125 C 23.066406 -7.644531 24.1875 -8.109375 24.96875 -8.703125 C 25.601562 -9.203125 26.269531 -9.863281 26.96875 -10.6875 C 27.675781 -11.507812 28.257812 -12.363281 28.71875 -13.25 Z M 17.15625 -18.578125 C 17.96875 -18.648438 18.679688 -18.90625 19.296875 -19.34375 C 19.910156 -19.78125 20.21875 -20.25 20.21875 -20.75 C 20.25 -21.445312 20.078125 -22.015625 19.703125 -22.453125 C 19.335938 -22.898438 18.71875 -23.101562 17.84375 -23.0625 C 16.851562 -23.03125 15.898438 -22.890625 14.984375 -22.640625 C 14.078125 -22.398438 13.535156 -21.890625 13.359375 -21.109375 C 13.253906 -20.585938 13.410156 -20.128906 13.828125 -19.734375 C 14.253906 -19.347656 14.78125 -19.054688 15.40625 -18.859375 C 16.039062 -18.671875 16.625 -18.578125 17.15625 -18.578125 Z M 17.15625 -18.578125 "/></g></g></g><g fill="#ffffff" fill-opacity="1"><g transform="translate(144.973677, 173.848135)"><g><path d="M 6.140625 -5.59375 C 5.992188 -5.863281 5.78125 -6.066406 5.5 -6.203125 C 5.226562 -6.347656 4.910156 -6.421875 4.546875 -6.421875 C 3.898438 -6.421875 3.378906 -6.207031 2.984375 -5.78125 C 2.597656 -5.363281 2.40625 -4.800781 2.40625 -4.09375 C 2.40625 -3.34375 2.609375 -2.753906 3.015625 -2.328125 C 3.421875 -1.910156 3.984375 -1.703125 4.703125 -1.703125 C 5.191406 -1.703125 5.601562 -1.820312 5.9375 -2.0625 C 6.28125 -2.3125 6.53125 -2.671875 6.6875 -3.140625 L 4.15625 -3.140625 L 4.15625 -4.609375 L 8.484375 -4.609375 L 8.484375 -2.765625 C 8.335938 -2.265625 8.085938 -1.800781 7.734375 -1.375 C 7.378906 -0.945312 6.929688 -0.597656 6.390625 -0.328125 C 5.847656 -0.0664062 5.234375 0.0625 4.546875 0.0625 C 3.742188 0.0625 3.023438 -0.113281 2.390625 -0.46875 C 1.753906 -0.820312 1.257812 -1.3125 0.90625 -1.9375 C 0.5625 -2.570312 0.390625 -3.289062 0.390625 -4.09375 C 0.390625 -4.90625 0.5625 -5.625 0.90625 -6.25 C 1.257812 -6.882812 1.75 -7.378906 2.375 -7.734375 C 3.007812 -8.085938 3.734375 -8.265625 4.546875 -8.265625 C 5.515625 -8.265625 6.332031 -8.023438 7 -7.546875 C 7.675781 -7.078125 8.125 -6.425781 8.34375 -5.59375 Z M 6.140625 -5.59375 "/></g></g></g><g fill="#ffffff" fill-opacity="1"><g transform="translate(155.624536, 173.848135)"><g><path d="M 5.8125 -1.4375 L 2.765625 -1.4375 L 2.265625 0 L 0.1875 0 L 3.140625 -8.171875 L 5.453125 -8.171875 L 8.40625 0 L 6.296875 0 Z M 5.296875 -2.984375 L 4.28125 -5.96875 L 3.28125 -2.984375 Z M 5.296875 -2.984375 "/></g></g></g><g fill="#ffffff" fill-opacity="1"><g transform="translate(165.984758, 173.848135)"><g><path d="M 3.671875 0.078125 C 3.078125 0.078125 2.539062 -0.015625 2.0625 -0.203125 C 1.59375 -0.398438 1.21875 -0.6875 0.9375 -1.0625 C 0.65625 -1.445312 0.503906 -1.90625 0.484375 -2.4375 L 2.609375 -2.4375 C 2.640625 -2.132812 2.742188 -1.90625 2.921875 -1.75 C 3.097656 -1.59375 3.332031 -1.515625 3.625 -1.515625 C 3.914062 -1.515625 4.144531 -1.582031 4.3125 -1.71875 C 4.488281 -1.851562 4.578125 -2.039062 4.578125 -2.28125 C 4.578125 -2.476562 4.507812 -2.644531 4.375 -2.78125 C 4.238281 -2.914062 4.070312 -3.023438 3.875 -3.109375 C 3.675781 -3.191406 3.394531 -3.289062 3.03125 -3.40625 C 2.5 -3.5625 2.066406 -3.71875 1.734375 -3.875 C 1.398438 -4.039062 1.113281 -4.285156 0.875 -4.609375 C 0.632812 -4.929688 0.515625 -5.347656 0.515625 -5.859375 C 0.515625 -6.617188 0.789062 -7.210938 1.34375 -7.640625 C 1.894531 -8.066406 2.609375 -8.28125 3.484375 -8.28125 C 4.390625 -8.28125 5.117188 -8.066406 5.671875 -7.640625 C 6.222656 -7.210938 6.515625 -6.613281 6.546875 -5.84375 L 4.40625 -5.84375 C 4.382812 -6.101562 4.285156 -6.304688 4.109375 -6.453125 C 3.929688 -6.609375 3.703125 -6.6875 3.421875 -6.6875 C 3.179688 -6.6875 2.988281 -6.625 2.84375 -6.5 C 2.695312 -6.375 2.625 -6.191406 2.625 -5.953125 C 2.625 -5.679688 2.742188 -5.472656 2.984375 -5.328125 C 3.234375 -5.179688 3.625 -5.023438 4.15625 -4.859375 C 4.6875 -4.679688 5.113281 -4.507812 5.4375 -4.34375 C 5.769531 -4.175781 6.054688 -3.9375 6.296875 -3.625 C 6.535156 -3.320312 6.65625 -2.925781 6.65625 -2.4375 C 6.65625 -1.96875 6.535156 -1.539062 6.296875 -1.15625 C 6.066406 -0.78125 5.722656 -0.476562 5.265625 -0.25 C 4.816406 -0.03125 4.285156 0.078125 3.671875 0.078125 Z M 3.671875 0.078125 "/></g></g></g><g fill="#ffffff" fill-opacity="1"><g transform="translate(174.926695, 173.848135)"><g><path d="M 6.59375 -8.171875 L 6.59375 -6.578125 L 4.4375 -6.578125 L 4.4375 0 L 2.4375 0 L 2.4375 -6.578125 L 0.28125 -6.578125 L 0.28125 -8.171875 Z M 6.59375 -8.171875 "/></g></g></g><g fill="#ffffff" fill-opacity="1"><g transform="translate(183.589621, 173.848135)"><g><path d="M 4.890625 0 L 3.1875 -3.078125 L 2.71875 -3.078125 L 2.71875 0 L 0.71875 0 L 0.71875 -8.171875 L 4.0625 -8.171875 C 4.707031 -8.171875 5.253906 -8.054688 5.703125 -7.828125 C 6.160156 -7.609375 6.5 -7.300781 6.71875 -6.90625 C 6.945312 -6.519531 7.0625 -6.082031 7.0625 -5.59375 C 7.0625 -5.050781 6.90625 -4.566406 6.59375 -4.140625 C 6.289062 -3.710938 5.84375 -3.410156 5.25 -3.234375 L 7.140625 0 Z M 2.71875 -4.5 L 3.953125 -4.5 C 4.316406 -4.5 4.585938 -4.585938 4.765625 -4.765625 C 4.953125 -4.941406 5.046875 -5.191406 5.046875 -5.515625 C 5.046875 -5.828125 4.953125 -6.070312 4.765625 -6.25 C 4.585938 -6.425781 4.316406 -6.515625 3.953125 -6.515625 L 2.71875 -6.515625 Z M 2.71875 -4.5 "/></g></g></g><g fill="#ffffff" fill-opacity="1"><g transform="translate(192.9617, 173.848135)"><g><path d="M 4.59375 0.078125 C 3.820312 0.078125 3.113281 -0.0976562 2.46875 -0.453125 C 1.832031 -0.804688 1.328125 -1.300781 0.953125 -1.9375 C 0.578125 -2.582031 0.390625 -3.304688 0.390625 -4.109375 C 0.390625 -4.910156 0.578125 -5.628906 0.953125 -6.265625 C 1.328125 -6.898438 1.832031 -7.394531 2.46875 -7.75 C 3.113281 -8.101562 3.820312 -8.28125 4.59375 -8.28125 C 5.351562 -8.28125 6.050781 -8.101562 6.6875 -7.75 C 7.332031 -7.394531 7.835938 -6.898438 8.203125 -6.265625 C 8.578125 -5.628906 8.765625 -4.910156 8.765625 -4.109375 C 8.765625 -3.304688 8.578125 -2.582031 8.203125 -1.9375 C 7.828125 -1.300781 7.320312 -0.804688 6.6875 -0.453125 C 6.050781 -0.0976562 5.351562 0.078125 4.59375 0.078125 Z M 4.59375 -1.734375 C 5.238281 -1.734375 5.753906 -1.945312 6.140625 -2.375 C 6.535156 -2.8125 6.734375 -3.390625 6.734375 -4.109375 C 6.734375 -4.828125 6.535156 -5.398438 6.140625 -5.828125 C 5.753906 -6.265625 5.238281 -6.484375 4.59375 -6.484375 C 3.925781 -6.484375 3.394531 -6.269531 3 -5.84375 C 2.613281 -5.414062 2.421875 -4.835938 2.421875 -4.109375 C 2.421875 -3.390625 2.613281 -2.8125 3 -2.375 C 3.394531 -1.945312 3.925781 -1.734375 4.59375 -1.734375 Z M 4.59375 -1.734375 "/></g></g></g><g fill="#ffffff" fill-opacity="1"><g transform="translate(203.891566, 173.848135)"><g><path d="M 8.03125 0 L 6.046875 0 L 2.71875 -5.046875 L 2.71875 0 L 0.71875 0 L 0.71875 -8.171875 L 2.71875 -8.171875 L 6.046875 -3.109375 L 6.046875 -8.171875 L 8.03125 -8.171875 Z M 8.03125 0 "/></g></g></g><g fill="#ffffff" fill-opacity="1"><g transform="translate(214.426174, 173.848135)"><g><path d="M 4.59375 0.078125 C 3.820312 0.078125 3.113281 -0.0976562 2.46875 -0.453125 C 1.832031 -0.804688 1.328125 -1.300781 0.953125 -1.9375 C 0.578125 -2.582031 0.390625 -3.304688 0.390625 -4.109375 C 0.390625 -4.910156 0.578125 -5.628906 0.953125 -6.265625 C 1.328125 -6.898438 1.832031 -7.394531 2.46875 -7.75 C 3.113281 -8.101562 3.820312 -8.28125 4.59375 -8.28125 C 5.351562 -8.28125 6.050781 -8.101562 6.6875 -7.75 C 7.332031 -7.394531 7.835938 -6.898438 8.203125 -6.265625 C 8.578125 -5.628906 8.765625 -4.910156 8.765625 -4.109375 C 8.765625 -3.304688 8.578125 -2.582031 8.203125 -1.9375 C 7.828125 -1.300781 7.320312 -0.804688 6.6875 -0.453125 C 6.050781 -0.0976562 5.351562 0.078125 4.59375 0.078125 Z M 4.59375 -1.734375 C 5.238281 -1.734375 5.753906 -1.945312 6.140625 -2.375 C 6.535156 -2.8125 6.734375 -3.390625 6.734375 -4.109375 C 6.734375 -4.828125 6.535156 -5.398438 6.140625 -5.828125 C 5.753906 -6.265625 5.238281 -6.484375 4.59375 -6.484375 C 3.925781 -6.484375 3.394531 -6.269531 3 -5.84375 C 2.613281 -5.414062 2.421875 -4.835938 2.421875 -4.109375 C 2.421875 -3.390625 2.613281 -2.8125 3 -2.375 C 3.394531 -1.945312 3.925781 -1.734375 4.59375 -1.734375 Z M 4.59375 -1.734375 "/></g></g></g><g fill="#ffffff" fill-opacity="1"><g transform="translate(225.356041, 173.848135)"><g><path d="M 9.96875 -8.171875 L 9.96875 0 L 7.984375 0 L 7.984375 -4.90625 L 6.15625 0 L 4.546875 0 L 2.71875 -4.90625 L 2.71875 0 L 0.71875 0 L 0.71875 -8.171875 L 3.078125 -8.171875 L 5.359375 -2.515625 L 7.640625 -8.171875 Z M 9.96875 -8.171875 "/></g></g></g><g fill="#ffffff" fill-opacity="1"><g transform="translate(237.820444, 173.848135)"><g><path d="M 2.71875 -6.578125 L 2.71875 -4.921875 L 5.375 -4.921875 L 5.375 -3.390625 L 2.71875 -3.390625 L 2.71875 -1.59375 L 5.734375 -1.59375 L 5.734375 0 L 0.71875 0 L 0.71875 -8.171875 L 5.734375 -8.171875 L 5.734375 -6.578125 Z M 2.71875 -6.578125 "/></g></g></g><g fill="#ffffff" fill-opacity="1"><g transform="translate(245.902115, 173.848135)"><g><path d="M 8.03125 0 L 6.046875 0 L 2.71875 -5.046875 L 2.71875 0 L 0.71875 0 L 0.71875 -8.171875 L 2.71875 -8.171875 L 6.046875 -3.109375 L 6.046875 -8.171875 L 8.03125 -8.171875 Z M 8.03125 0 "/></g></g></g><g fill="#ffffff" fill-opacity="1"><g transform="translate(126.856954, 172.858553)"><g><path d="M 3.5 -2.953125 C 3.707031 -2.921875 3.894531 -2.832031 4.0625 -2.6875 C 4.238281 -2.550781 4.378906 -2.378906 4.484375 -2.171875 C 4.585938 -1.972656 4.640625 -1.757812 4.640625 -1.53125 C 4.640625 -1.238281 4.5625 -0.976562 4.40625 -0.75 C 4.257812 -0.519531 4.046875 -0.335938 3.765625 -0.203125 C 3.484375 -0.0664062 3.148438 0 2.765625 0 L 0.640625 0 L 0.640625 -5.734375 L 2.6875 -5.734375 C 3.070312 -5.734375 3.398438 -5.664062 3.671875 -5.53125 C 3.953125 -5.40625 4.160156 -5.234375 4.296875 -5.015625 C 4.429688 -4.796875 4.5 -4.550781 4.5 -4.28125 C 4.5 -3.9375 4.40625 -3.648438 4.21875 -3.421875 C 4.039062 -3.203125 3.800781 -3.046875 3.5 -2.953125 Z M 1.375 -3.25 L 2.640625 -3.25 C 2.992188 -3.25 3.265625 -3.332031 3.453125 -3.5 C 3.640625 -3.664062 3.734375 -3.894531 3.734375 -4.1875 C 3.734375 -4.476562 3.640625 -4.703125 3.453125 -4.859375 C 3.265625 -5.023438 2.988281 -5.109375 2.625 -5.109375 L 1.375 -5.109375 Z M 2.703125 -0.609375 C 3.078125 -0.609375 3.367188 -0.695312 3.578125 -0.875 C 3.785156 -1.050781 3.890625 -1.296875 3.890625 -1.609375 C 3.890625 -1.929688 3.78125 -2.179688 3.5625 -2.359375 C 3.34375 -2.546875 3.046875 -2.640625 2.671875 -2.640625 L 1.375 -2.640625 L 1.375 -0.609375 Z M 2.703125 -0.609375 "/></g></g></g><g fill="#ffffff" fill-opacity="1"><g transform="translate(133.15803, 172.858553)"><g><path d="M 4.640625 -5.734375 L 2.78125 -2.15625 L 2.78125 0 L 2.03125 0 L 2.03125 -2.15625 L 0.15625 -5.734375 L 0.984375 -5.734375 L 2.40625 -2.828125 L 3.8125 -5.734375 Z M 4.640625 -5.734375 "/></g></g></g></svg>